<svg id="Layer_1" data-name="Layer 1" xmlns="http://www.w3.org/2000/svg" viewBox="0 0 49.63 49.72"><path d="M50,18.08v.36q0,13.11,0,26.2a5.25,5.25,0,0,1-4,5.17,5.66,5.66,0,0,1-1.48.18H5.83A5.3,5.3,0,0,1,.38,44.69q0-13.15,0-26.3c0-.09,0-.18,0-.31ZM21.73,35.16c-1.38-1.39-2.71-2.74-4.06-4.08a1.77,1.77,0,1,0-2.51,2.5q2.55,2.58,5.13,5.14a1.75,1.75,0,0,0,2.61.09Q29,33.58,35.14,28.31a1.78,1.78,0,1,0-2.34-2.66l-3.07,2.64Z" transform="translate(-0.37 -0.28)" opacity="0.4"/><path d="M16.32,3.8H34.05c0-.57,0-1.12,0-1.67a1.77,1.77,0,1,1,3.54,0c0,.55,0,1.1,0,1.71h.64c2.1,0,4.21,0,6.31,0A5.32,5.32,0,0,1,50,9.3v5.14H.41c0-.14,0-.3,0-.46q0-2.36,0-4.71A5.31,5.31,0,0,1,5.81,3.83c2.1,0,4.21,0,6.31,0h.66V2.25a1.78,1.78,0,1,1,3.54,0C16.33,2.77,16.32,3.27,16.32,3.8Z" transform="translate(-0.37 -0.28)" opacity="0.4"/></svg>