<svg id="Layer_1" data-name="Layer 1" xmlns="http://www.w3.org/2000/svg" viewBox="0 0 45.44 50.1"><path d="M44.49,7.21a12.47,12.47,0,0,0-8.42-3.69V1.7a1.75,1.75,0,0,0-3.5,0V3.44H17.43V1.7a1.75,1.75,0,1,0-3.5,0V3.52A12.47,12.47,0,0,0,5.51,7.21c-2.14,2.31-3.23,5.55-3.23,9.63V36.65c0,4.08,1.09,7.33,3.23,9.64,2.32,2.49,5.74,3.76,10.17,3.76H34.32c4.43,0,7.85-1.27,10.17-3.76,2.14-2.31,3.23-5.56,3.23-9.64V16.84C47.72,12.76,46.63,9.52,44.49,7.21ZM13.93,7V8.69a1.75,1.75,0,0,0,3.5,0V6.94H32.57V8.69a1.75,1.75,0,0,0,3.5,0V7a8.9,8.9,0,0,1,5.85,2.55c1.47,1.57,2.23,3.89,2.29,6.88H5.79c.06-3,.82-5.31,2.29-6.88A8.9,8.9,0,0,1,13.93,7Zm28,36.87c-1.63,1.75-4.18,2.64-7.6,2.64H15.68c-3.42,0-6-.89-7.6-2.64s-2.3-4.09-2.3-7.26V20H44.22V36.65C44.22,39.82,43.45,42.27,41.92,43.91Z" transform="translate(-2.28 0.05)" fill="#0d5aa3" style="isolation:isolate"/><path d="M33.63,26.63h0a2.33,2.33,0,0,0,0,4.66h0a2.33,2.33,0,0,0,0-4.66Z" transform="translate(-2.28 0.05)" fill="#0d5aa3" style="isolation:isolate"/><path d="M33.63,33.62h0a2.33,2.33,0,0,0,0,4.66h0a2.33,2.33,0,0,0,0-4.66Z" transform="translate(-2.28 0.05)" fill="#0d5aa3" style="isolation:isolate"/><path d="M25,26.63h0a2.33,2.33,0,0,0,0,4.66h0a2.33,2.33,0,0,0,0-4.66Z" transform="translate(-2.28 0.05)" fill="#0d5aa3" style="isolation:isolate"/><path d="M25,33.62h0a2.33,2.33,0,0,0,0,4.66h0a2.33,2.33,0,0,0,0-4.66Z" transform="translate(-2.28 0.05)" fill="#0d5aa3" style="isolation:isolate"/><path d="M16.39,26.63h0a2.33,2.33,0,1,0,0,4.66h0a2.33,2.33,0,0,0,0-4.66Z" transform="translate(-2.28 0.05)" fill="#0d5aa3" style="isolation:isolate"/><path d="M16.38,33.62h0a2.33,2.33,0,0,0,0,4.66h0a2.33,2.33,0,1,0,0-4.66Z" transform="translate(-2.28 0.05)" fill="#0d5aa3" style="isolation:isolate"/></svg>