<svg id="Layer_1" data-name="Layer 1" xmlns="http://www.w3.org/2000/svg" viewBox="0 0 51.01 44.52"><path d="M47.45,19.06A22.77,22.77,0,0,0,28.74,2.9a35.3,35.3,0,0,0-6.17,0h0A22.89,22.89,0,0,0,3.89,18.38l-.14.42-.82-1.49C2.11,15.77,1.66,15.1,1,15A1.31,1.31,0,0,0,0,15.31c-.9.71-.56,1.35,1.34,4.88.47.85,1.83,3.35,2,3.56a1.27,1.27,0,0,0,1,.38,1.52,1.52,0,0,0,.57-.1c.08,0,.29-.1,3-2.9,2.54-2.63,2.75-2.84,2.75-3.48a1.21,1.21,0,0,0-1.35-1.32c-.65,0-.87.22-2.26,1.67a21.13,21.13,0,0,1,5.43-7.62A20,20,0,0,1,37.59,9.5a19.54,19.54,0,0,1,7,10c.34,1.21.63,2,1.59,2a1.39,1.39,0,0,0,1.31-.83C47.77,20.23,47.71,19.93,47.45,19.06Z" transform="translate(0.51 -2.74)" fill="#0d5aa3"/><path d="M35.43,20.64a2.9,2.9,0,0,0-2.64-1.25l-.63,0,0-.75A7.64,7.64,0,0,0,30,13.33a6.79,6.79,0,0,0-3.22-1.74,9.08,9.08,0,0,0-3.33.06c-3,.73-4.79,3.14-5,6.8l-.05.91-.66,0a2.83,2.83,0,0,0-1.84.49,3.23,3.23,0,0,0-1.31,1.82c0,.14-.15.51-.11,6.63s0,6.15.34,6.72a3.3,3.3,0,0,0,.73.92l.11.1c.77.67.77.67,8,.67H25.2c8,0,8.57-.07,8.82-.17a3.29,3.29,0,0,0,1.63-1.44l.39-.65,0-6C36.11,22.05,36.1,21.55,35.43,20.64Zm-10.1,1.52c4.8,0,7.23,0,7.88.09.07.71.07,3.25.07,5.83,0,3.76,0,5.64,0,5.84C33,34,31,34,25.3,34c-5.48,0-7.74,0-8-.09l0,0V28.06c0-3.52,0-5.3.07-5.82C18.1,22.16,21,22.15,25.33,22.16Zm-4.2-2.88v-.11a9.94,9.94,0,0,1,.44-2.83,3.47,3.47,0,0,1,1.94-1.86,6.9,6.9,0,0,1,3.35,0c1.52.48,2.31,1.77,2.51,4.08a3.48,3.48,0,0,0,.05.36c0,.09,0,.21,0,.28a18.38,18.38,0,0,1-3,.09Z" transform="translate(0.51 -2.74)" fill="#0d5aa3"/><path d="M47.14,25.82a1.36,1.36,0,0,0-1.42-.41h0c-.39.17-6,5.23-6.13,5.58a1.32,1.32,0,0,0,0,1.33,1.33,1.33,0,0,0,1.17.65c.61,0,.74-.12,2.91-2.08l.26-.24c-.19.59-.42,1.22-.59,1.62a20.32,20.32,0,0,1-5.18,7.2,20,20,0,0,1-19.68,4A20.18,20.18,0,0,1,7.15,33.73a14.22,14.22,0,0,1-1.36-3.42,4.14,4.14,0,0,0-.65-1.45,1.3,1.3,0,0,0-1.29-.35,1.44,1.44,0,0,0-1,1.07c-.24.93,1,3.87,1.87,5.5a22.73,22.73,0,0,0,17,12,25.37,25.37,0,0,0,3.13.16,25.14,25.14,0,0,0,3.25-.18A22.75,22.75,0,0,0,46.7,31.18L47,32a17.48,17.48,0,0,0,1.14,2.2,1.38,1.38,0,0,0,1.49.33,1.29,1.29,0,0,0,.83-1.19A48.84,48.84,0,0,0,47.14,25.82Z" transform="translate(0.51 -2.74)" fill="#0d5aa3"/><path d="M25,23.72a3.44,3.44,0,0,0-1.25,6.66V32a1.25,1.25,0,0,0,2.5,0V30.38A3.44,3.44,0,0,0,25,23.72Zm0,2.5a1,1,0,1,1-1,1A1,1,0,0,1,25,26.22Z" transform="translate(0.51 -2.74)" fill="#0d5aa3"/></svg>