<svg id="Layer_1" data-name="Layer 1" xmlns="http://www.w3.org/2000/svg" viewBox="0 0 50 34.78"><path d="M21.72,28c.75,4.43,1.66,9.06,2.17,10a2.77,2.77,0,0,0,4.9-2.6c-.51-1-3.83-4.31-7.07-7.42Zm-1.15-5.12c1.61,1.48,9.66,9,10.82,11.16a5.72,5.72,0,0,1-10.1,5.36c-1.16-2.19-2.84-13.06-3.17-15.22a1.48,1.48,0,0,1,.77-1.52,1.45,1.45,0,0,1,1.68.22ZM25,7.61A25,25,0,0,1,49.31,38.49L49,39.61H35.38V36.67H46.69a21.82,21.82,0,0,0,.37-4.06,22.06,22.06,0,0,0-44.12,0,21.82,21.82,0,0,0,.37,4.06H16v2.94H1L.69,38.49A25,25,0,0,1,25,7.61ZM39.13,17.78l2.08,2.08L38.27,22.8l-2.08-2.08Zm-28.26,0,2.93,2.94L11.72,22.8,8.79,19.86l2.08-2.08Zm15.6-5.24v4.15H23.53V12.54Z" transform="translate(0 -7.61)" fill="#0d5aa3" fill-rule="evenodd"/></svg>