<svg id="Layer_1" data-name="Layer 1" xmlns="http://www.w3.org/2000/svg" viewBox="0 0 593.61 800"><path d="M103.19,52.68H247.42C248.3,34,249.06,17.88,249.9,0H549.68c.86,17.06,1.7,33.85,2.68,53.21H696.81V800H479.87V627.65H321.1V799.83H103.19ZM346.28,249H450.69V153.46H346.28ZM452.13,396.66v-96.3h-104v96.3ZM347.59,446.61v98.24H452.64c0-29.43.54-56.94-.51-84.4-.18-4.74-6.95-13.08-10.91-13.22C410.46,446.12,379.64,446.61,347.59,446.61ZM502.25,299.37V398h95v-98.6Zm-301-147.09V249h95.13V152.28Zm397,1.32H503.13v95.79h95.18ZM296.55,396.44V300H201.81v96.44ZM201.46,545.18h95.9V448.05h-95.9Zm300.86.17h96.35V448H502.32Z" transform="translate(-103.19)" opacity="0.4"/></svg>