<svg id="Layer_1" data-name="Layer 1" xmlns="http://www.w3.org/2000/svg" viewBox="0 0 43.99 50"><path d="M6.83,50,6,49.75a4.43,4.43,0,0,1-3-4.28C3,42,3,38.6,3,35.16c0-3.15.06-6.32,0-9.47A4.54,4.54,0,0,1,7.53,20.8l.18,0c0-1.34-.06-2.7,0-4a25.61,25.61,0,0,1,.49-4.2,16.5,16.5,0,0,1,32.16.54,22,22,0,0,1,.37,3.73c.06,1.31,0,2.63,0,4h1.49A4.44,4.44,0,0,1,47,25.54V45.18a4.43,4.43,0,0,1-3.72,4.76.24.24,0,0,0-.08.06ZM25,47.06h17.3c1.22,0,1.78-.56,1.78-1.8V25.58c0-1.28-.55-1.83-1.8-1.83H7.75c-1.23,0-1.78.56-1.78,1.8V45.24c0,1.27.55,1.82,1.8,1.82ZM14.57,20.79c0-1.44,0-2.82,0-4.21A9.66,9.66,0,0,1,33.7,14.63a13.44,13.44,0,0,1,.19,2.29c0,1.28,0,2.56,0,3.85h3.91c0-1.59,0-3.15,0-4.71a11,11,0,0,0-.13-1.51A13.59,13.59,0,0,0,11,13.34c-.56,2.43-.32,4.89-.36,7.35,0,0,0,0,.06.1Zm16.32,0c0-1.75.14-3.45,0-5.13a6.66,6.66,0,0,0-13.15-.5,42.51,42.51,0,0,0-.17,5.54s0,0,.06.09Z" transform="translate(-3.01 0)" fill="#0d5aa3"/><path d="M23.54,37a3.16,3.16,0,0,1,2.22-3.43A2,2,0,0,0,27,31.23a2,2,0,0,0-2.1-1.47A2,2,0,0,0,23,31.54a3.39,3.39,0,0,1-.13.72,1.46,1.46,0,0,1-1.64.93,1.5,1.5,0,0,1-1.2-1.47,4.94,4.94,0,0,1,9.85-.59,4.89,4.89,0,0,1-3.06,5.19c-.28.12-.41.26-.38.57a5.17,5.17,0,0,1,0,.88,1.46,1.46,0,0,1-2.92,0C23.53,37.5,23.54,37.24,23.54,37Z" transform="translate(-3.01 0)" fill="#0d5aa3"/><path d="M26.48,42.52A1.47,1.47,0,1,1,25,41,1.47,1.47,0,0,1,26.48,42.52Z" transform="translate(-3.01 0)" fill="#0d5aa3"/></svg>