<svg id="Layer_1" data-name="Layer 1" xmlns="http://www.w3.org/2000/svg" viewBox="0 0 50 50.1"><path d="M32.9,50.1h-.31c-5.48,0-9.31-1-12.08-3.25s-4.41-5.72-4.87-10.58a1.83,1.83,0,1,1,3.64-.34c.37,3.87,1.48,6.44,3.51,8.06s5.26,2.45,9.8,2.45h.31c5.06,0,8.38-1,10.43-3s3-5.37,3-10.43V17.1c0-5.06-1-8.38-3-10.43s-5.37-3-10.43-3h-.31c-4.57,0-7.79.81-9.85,2.48s-3.14,4.26-3.48,8.21A1.83,1.83,0,1,1,15.62,14c.42-4.94,2-8.45,4.82-10.74S27.07,0,32.59,0h.31c6.1,0,10.23,1.3,13,4.08S50,11,50,17.1V33c0,6.1-1.3,10.23-4.08,13S39,50.1,32.9,50.1Z" transform="translate(0)" fill="#0d5aa3"/><path d="M32.32,26.85H4.56a1.83,1.83,0,1,1,0-3.65H32.32a1.83,1.83,0,1,1,0,3.65Z" transform="translate(0)" fill="#0d5aa3"/><path d="M10,35a1.78,1.78,0,0,1-1.29-.53L.54,26.32a1.82,1.82,0,0,1,0-2.59l8.17-8.17a1.83,1.83,0,0,1,2.58,2.59L4.42,25l6.87,6.88a1.82,1.82,0,0,1,0,2.59A1.78,1.78,0,0,1,10,35Z" transform="translate(0)" fill="#0d5aa3"/></svg>