<svg id="Layer_1" data-name="Layer 1" xmlns="http://www.w3.org/2000/svg" viewBox="0 0 50 50"><path d="M25,9.84a9.36,9.36,0,0,0-.34,18.72,1.27,1.27,0,0,0,.28,0H25l.24,0h.06a9.34,9.34,0,0,0,9-9.34h0A9.38,9.38,0,0,0,25,9.84Zm.34,15.23a3.75,3.75,0,0,0-.67,0,5.89,5.89,0,1,1,.67,0Z" transform="translate(0)" fill="#0d5aa3"/><path d="M48,15.27A25,25,0,0,0,2,15.27,25,25,0,0,0,15.27,48a24.56,24.56,0,0,0,7.39,1.86h.05l.51,0h.18l.4,0,.39,0h2l.41,0h.17l.53,0h0A24.26,24.26,0,0,0,34.73,48,25,25,0,0,0,48,15.27ZM11.23,41.51a7.51,7.51,0,0,1,3.18-3.9c5.76-3.82,15.46-3.82,21.17,0a7.53,7.53,0,0,1,3.19,3.9c-.23.19-.46.38-.7.56l-.06,0-.29.22-.13.09-.25.18-.17.12-.22.15-.22.15-.19.11a2.9,2.9,0,0,1-.29.19l-.12.07c-.29.18-.57.34-.87.5l-.11.06-.32.17-.16.08-.28.14-.19.09-.26.12-.2.1-.24.1-.23.1-.21.08-.26.11-.17.06-.29.11h0c-.41.15-.83.28-1.24.41l-.09,0-.36.1-.11,0-.35.09-.12,0L29.7,46l-.12,0-.36.08h-.09c-.39.08-.79.14-1.18.2l-.15,0-.28,0-.23,0-.25,0-.27,0-.23,0-.31,0H23.78l-.33,0-.21,0-.29,0-.23,0-.26,0-.25,0-.22,0-.71-.11h0l-.35-.06-.14,0L20.45,46l-.16,0L20,45.92l-.16,0-.32-.08-.16,0L19,45.67l-.16-.05-.31-.1-.13,0-.53-.18-.24-.08-.21-.08-.26-.1L17,45l-.29-.11-.16-.07-.31-.14-.14-.06-.33-.16-.12-.05-.37-.19-.07,0c-.61-.31-1.2-.65-1.77-1l-.07-.05L13,42.86l-.13-.09-.26-.18-.17-.12-.22-.16L12,42.15,11.88,42l-.26-.2-.08-.06Zm30.2-2.64a11.88,11.88,0,0,0-3.9-4.16A22.77,22.77,0,0,0,25,31.24a22.88,22.88,0,0,0-12.54,3.47h0a11.77,11.77,0,0,0-3.9,4.15,21.51,21.51,0,1,1,32.86,0Z" transform="translate(0)" fill="#0d5aa3"/></svg>