<?xml version="1.0" encoding="utf-8"?>
<!-- Generator: Adobe Illustrator 26.0.0, SVG Export Plug-In . SVG Version: 6.00 Build 0)  -->
<svg version="1.1" id="Layer_1" xmlns="http://www.w3.org/2000/svg" xmlns:xlink="http://www.w3.org/1999/xlink" x="0px" y="0px"
	 viewBox="0 0 50.1 50.1" style="enable-background:new 0 0 50.1 50.1;" xml:space="preserve">
<style type="text/css">
	.st0{fill:#FFFFFF;}
</style>
<path class="st0" d="M27.1,14.5l-0.3-0.3c-2.4-2.3-6.2-2.2-8.5,0.2c0,0,0,0-0.1,0.1c-1.2,1.2-1.8,2.9-1.8,4.6v1.5h-0.7
	c-0.6,0-1,0.4-1,1v10.8c0,0.6,0.4,1,1,1h13.8c0.6,0,1-0.4,1-1V21.6c0-0.6-0.4-1-1-1h-0.7v-1.5C28.9,17.4,28.2,15.7,27.1,14.5z
	 M24.6,30.3h-3.9l1.1-2.9c-0.4-0.2-0.7-0.5-0.9-0.9c-0.5-1-0.1-2.2,0.9-2.7c1-0.5,2.2-0.1,2.7,0.9c0.5,1,0.1,2.2-0.9,2.7
	c0,0,0,0,0,0L24.6,30.3z M27,20.6h-8.6v-1.5c0-1.2,0.5-2.4,1.3-3.2c0.1-0.1,0.1-0.1,0.2-0.2c1.7-1.6,4.3-1.5,5.8,0.2c0,0,0,0,0,0
	c0.8,0.9,1.3,2,1.3,3.2V20.6z"/>
<path class="st0" d="M42.6,19.6c-1.7,9.4-6.5,22.4-20,28.7l0,0C2.5,38.9,1.6,14.6,1.7,9.6c3,0.3,12.1,0.3,20.9-7.6
	c2.8,2.5,5.9,4.5,9.4,5.8c0-0.6,0.1-1.2,0.3-1.7c-3.4-1.4-6.5-3.3-9.1-5.8c-0.3-0.3-0.8-0.3-1.2,0C12,9.6,1.1,7.8,1,7.8
	c-0.2,0-0.5,0-0.7,0.2C0.1,8.1,0,8.3,0,8.6c0,0.3-1.5,30.6,22.2,41.5c0.2,0.1,0.5,0.1,0.7,0c14.6-6.7,19.6-20.7,21.4-30.6
	C43.8,19.6,43.2,19.6,42.6,19.6L42.6,19.6z"/>
<path class="st0" d="M41.5,1.4c-4.7,0-8.6,3.8-8.6,8.6s3.8,8.6,8.6,8.6s8.6-3.8,8.6-8.6c0,0,0,0,0,0C50.1,5.3,46.2,1.4,41.5,1.4z
	 M48.6,10c0,3.9-3.1,7.1-7,7.1c-3.9,0-7.1-3.1-7.1-7c0-3.9,3.1-7.1,7-7.1c0,0,0,0,0.1,0C45.4,3,48.5,6.1,48.6,10z"/>
<path class="st0" d="M45.3,7.2L40,11.8l-1.7-2c-0.2-0.3-0.7-0.3-1-0.1c0,0,0,0,0,0c-0.3,0.2-0.3,0.7-0.1,1c0,0,0,0,0,0l2.1,2.5
	c0.1,0.1,0.3,0.2,0.5,0.2l0,0c0.2,0,0.3-0.1,0.5-0.2l5.8-5c0.1-0.1,0.2-0.3,0.2-0.5c0-0.2,0-0.4-0.2-0.5C46,7.1,45.6,7.1,45.3,7.2z"
	/>
</svg>
