<svg id="Layer_1" data-name="Layer 1" xmlns="http://www.w3.org/2000/svg" viewBox="0 0 44.81 49.93"><path d="M39.08,50H10.92a8.34,8.34,0,0,1-8.33-8.33c0-3.67,1.65-8.52,9.46-10.81a46.68,46.68,0,0,1,12.66-1.35h.58A46.68,46.68,0,0,1,38,30.83c7.81,2.29,9.46,7.14,9.46,10.81A8.34,8.34,0,0,1,39.08,50ZM24.37,33.32a42.06,42.06,0,0,0-11.24,1.2c-6,1.75-6.69,4.91-6.69,7.12a4.49,4.49,0,0,0,4.48,4.49H39.08a4.49,4.49,0,0,0,4.48-4.49c0-4.63-3.82-6.28-6.69-7.12a43.21,43.21,0,0,0-11.58-1.2h-.92Z" transform="translate(-2.59 -0.03)" fill="#0d5aa3"/><path d="M25,24.36A12.17,12.17,0,1,1,37.16,12.2,12.17,12.17,0,0,1,25,24.36ZM25,3.87a8.33,8.33,0,1,0,8.32,8.33A8.33,8.33,0,0,0,25,3.87Z" transform="translate(-2.59 -0.03)" fill="#0d5aa3"/></svg>